<svg xmlns="http://www.w3.org/2000/svg" viewBox="0 0 64 64">
  <!-- Background circle - yellow -->
  <circle cx="32" cy="32" r="30" fill="#FFD93D"/>
  <circle cx="32" cy="32" r="30" fill="none" stroke="#E8C533" stroke-width="2"/>
  
  <!-- Monkey face - brown -->
  <ellipse cx="32" cy="35" rx="18" ry="16" fill="#8B5A2B"/>
  
  <!-- Ears -->
  <circle cx="12" cy="28" r="8" fill="#8B5A2B"/>
  <circle cx="12" cy="28" r="5" fill="#DEB887"/>
  <circle cx="52" cy="28" r="8" fill="#8B5A2B"/>
  <circle cx="52" cy="28" r="5" fill="#DEB887"/>
  
  <!-- Face/muzzle area - tan -->
  <ellipse cx="32" cy="40" rx="12" ry="10" fill="#DEB887"/>
  
  <!-- Eyes - white -->
  <ellipse cx="25" cy="32" rx="5" ry="6" fill="white"/>
  <ellipse cx="39" cy="32" rx="5" ry="6" fill="white"/>
  
  <!-- Pupils -->
  <circle cx="26" cy="33" r="3" fill="#2C1810"/>
  <circle cx="40" cy="33" r="3" fill="#2C1810"/>
  
  <!-- Eye shine -->
  <circle cx="27" cy="31" r="1" fill="white"/>
  <circle cx="41" cy="31" r="1" fill="white"/>
  
  <!-- Nose -->
  <ellipse cx="32" cy="40" rx="3" ry="2" fill="#2C1810"/>
  
  <!-- Smile -->
  <path d="M 26 46 Q 32 52 38 46" fill="none" stroke="#2C1810" stroke-width="2" stroke-linecap="round"/>
  
  <!-- Graduation cap -->
  <polygon points="32,8 8,18 32,28 56,18" fill="#2C1810"/>
  <rect x="28" y="8" width="8" height="4" fill="#2C1810"/>
  <circle cx="32" cy="8" r="2" fill="#FF6B6B"/>
  <line x1="32" y1="8" x2="42" y2="4" stroke="#FF6B6B" stroke-width="2"/>
  <circle cx="44" cy="3" r="3" fill="#FF6B6B"/>
</svg>
